<svg width="189" height="27" viewBox="0 0 189 27" fill="none" xmlns="http://www.w3.org/2000/svg">
<g id="Link - New York Times homepage &#226;&#134;&#146; SVG">
<path id="Vector" d="M14.989 3.63888C14.989 1.56474 13.0174 0.938392 11.3642 1.01027V1.19509C12.35 1.26697 13.1099 1.66742 13.1099 2.33484C13.1099 2.7969 12.7813 3.37191 11.7955 3.37191C11.015 3.37191 9.72116 2.90985 8.50945 2.5094C7.17451 2.04734 5.90119 1.61608 4.8435 1.61608C2.76921 1.61608 1.19809 3.15628 1.19809 5.06613C1.19809 6.60633 2.38927 7.14026 2.8719 7.33536L2.90271 7.26348C2.59465 7.05812 2.39954 6.83222 2.39954 6.17507C2.39954 5.6206 2.80002 4.8813 3.86797 4.8813C4.83324 4.8813 6.09629 5.31256 7.7701 5.78489C9.20773 6.18534 10.7583 6.56526 11.6209 6.6782V10.0461L9.99842 11.3809L11.6209 12.7774V17.3877C10.7891 17.8601 9.82385 18.0141 8.99208 18.0141C7.45177 18.0141 6.03468 17.5828 4.86404 16.2891L9.23853 14.1636V6.88356L3.89878 9.26574C4.45329 7.84876 5.49044 6.79115 6.63027 6.1032L6.59946 6.02105C3.42642 6.88356 0.540894 9.78941 0.540894 13.3832C0.540894 17.6855 3.98093 20.8788 7.95494 20.8788C12.2575 20.8788 14.7837 17.5109 14.7426 13.9479H14.6604C14.034 15.3136 12.9866 16.6074 11.8057 17.285V12.7877L13.5001 11.422L11.8057 10.0564V6.68847C13.3768 6.68847 14.9993 5.6514 14.9993 3.64914M5.98334 15.5087L4.74082 16.135C3.98093 15.1493 3.47776 13.7529 3.47776 11.956C3.47776 11.2167 3.55991 10.2104 3.80636 9.5019L6.00387 8.51618L5.97307 15.4984L5.98334 15.5087ZM25.9766 9.59432L25.1448 10.2515L22.6085 7.99251L19.6716 10.2617V1.49286L15.677 4.25496C16.1391 4.40898 16.6937 4.65541 16.6937 5.72328V17.8498L15.3279 18.8869L15.4511 19.0101L16.1391 18.5377L18.5215 20.7146L21.7151 18.5891L21.6124 18.4351L20.8012 18.969L19.6921 17.8601V10.5492L20.452 9.99477L22.1977 11.5144V17.8703C22.1977 21.8954 21.3043 22.7271 19.497 23.3842V23.4869C22.5058 23.6101 25.2167 22.5936 25.2167 17.4391V10.5082L26.1204 9.76887L25.9972 9.61485L25.9766 9.59432ZM31.3369 20.6838L35.9681 16.9667L35.8449 16.7922L33.4215 18.7123L30.6386 16.5149V15.1493L35.4444 11.7609L33.021 7.99251L27.6812 10.9292V17.9114L26.6441 18.7226L26.7673 18.8766L27.7531 18.0962L31.3472 20.7043H31.3369V20.6838ZM30.6284 14.8618V9.57378L32.9594 13.2189L30.6284 14.8618ZM55.1194 2.65315C55.1194 2.32457 55.0372 2.04734 54.914 1.66742H54.8421C54.5135 2.56074 54.1541 3.03306 53.1169 3.03306C52.2133 3.03306 51.4945 2.47859 51.1145 2.06787C51.1145 2.09868 48.075 5.57953 48.075 5.57953L48.229 5.70274L49.0916 4.71702C49.7488 5.22015 50.3341 5.80542 51.7923 5.82596V14.6975L45.5694 3.91611C45.0868 3.10494 44.255 1.89332 42.8379 1.89332C41.1641 1.89332 39.901 3.33084 40.1064 5.76435H40.2091C40.3323 5.15854 40.6917 4.39871 41.4208 4.39871C42.0061 4.39871 42.4785 4.95318 42.7558 5.45631V8.9269C40.8355 8.9269 39.747 9.82021 39.747 11.3296C39.747 11.956 40.2091 13.3216 41.5132 13.5578V13.4859C41.3387 13.3113 41.1641 13.1573 41.1641 12.7979C41.1641 12.2127 41.5954 11.8943 42.3758 11.8943C42.499 11.8943 42.6839 11.9252 42.7558 11.9457V16.4431C40.4966 16.4739 38.7612 17.706 38.7612 19.8418C38.7612 21.9775 40.5069 22.799 42.3245 22.6963V22.6244C41.1846 22.5012 40.5993 21.9159 40.5993 21.0842C40.5993 20.1806 41.2565 19.6878 42.0883 19.6878C42.9201 19.6878 43.5567 20.2217 44.0907 20.8275L47.1303 17.4083L47.007 17.285L46.2266 18.1784C45.056 17.1413 44.3064 16.6587 42.9611 16.4533V5.79516L51.5458 20.7556H52.0079V5.8465C53.6509 5.74382 55.1194 4.51166 55.1194 2.65315ZM58.0049 20.6632L62.6361 16.9462L62.5129 16.7716L60.0894 18.6918L57.3066 16.4944V15.1288L62.1124 11.7403L59.6889 7.97197L54.3492 10.9086V17.8909L53.312 18.702L53.4353 18.8561L54.4211 18.0757L58.0151 20.6838L58.0049 20.6632ZM57.2963 14.8413V9.55324L59.6273 13.1984L57.2963 14.8413ZM79.0866 9.17333L78.3781 9.70726L76.3551 7.98224L74.0036 10.1077L74.9689 11.0113V18.9382L72.566 17.2953V10.8675L73.3977 10.2823L70.923 7.98224L68.6228 10.1077L69.588 11.0113V18.6712L69.434 18.7739L67.1749 17.131V10.8367C67.1749 9.36842 66.4355 8.93716 65.5011 8.36216C64.7206 7.87956 64.3099 7.42777 64.3099 6.68847C64.3099 5.8773 65.0184 5.54872 65.2443 5.42551C64.4331 5.3947 62.1843 6.20588 62.1329 8.25948C62.1021 9.31708 62.6155 9.77914 63.1495 10.2823C63.6835 10.7854 64.1867 11.268 64.1867 12.1613V18.3324L63.0982 19.1949L63.2214 19.3181L64.2585 18.5069L66.9592 20.7043L69.5367 18.9074L72.3709 20.7043L77.9365 17.4185V10.2823L79.1791 9.31708L79.0764 9.16306L79.0866 9.17333ZM97.7244 3.17682L96.6668 4.14201L94.2844 2.06787L91.0703 4.64514V2.22189H90.8752V19.6056C90.526 19.5543 89.7867 19.3489 88.9755 19.2257V4.67594C88.9755 3.61834 88.2156 2.13975 86.3158 2.13975C84.4161 2.13975 83.2249 3.74156 83.2249 5.12774H83.3071C83.4098 4.50139 83.8411 3.93665 84.4675 3.93665C85.0939 3.93665 85.6792 4.3371 85.6792 5.76435V9.91262C83.8821 9.9845 82.7937 11.1037 82.7937 12.3153C82.7937 13.0033 83.2249 14.2868 84.5907 14.3381V14.2355C84.1286 14.0404 84.0362 13.8042 84.0362 13.5475C84.0362 12.9417 84.6215 12.7363 85.4327 12.7363H85.6278V19.4208C84.0875 19.9547 83.3687 20.9918 83.3687 22.2753C83.3687 24.0414 84.7858 25.407 86.8601 25.407C88.3285 25.407 89.3657 25.1503 90.7109 24.8526C91.7994 24.6267 92.9803 24.37 93.6169 24.37C94.4282 24.37 94.7876 24.7293 94.7876 25.3044C94.7876 26.0437 94.5103 26.4133 94.079 26.5468V26.6495C95.8247 26.3209 96.8413 25.3146 96.8413 23.7436C96.8413 22.1726 95.301 21.1355 93.5759 21.1355C92.6825 21.1355 91.0703 21.4128 89.7559 21.7208C88.2874 22.0494 87.0244 22.2034 86.5623 22.2034C85.8229 22.2034 84.9193 21.8748 84.9193 20.8891C84.9193 19.9958 85.6586 19.2873 87.4762 19.2873C88.462 19.2873 89.4273 19.4413 90.639 19.7186C91.9329 19.9958 92.816 20.3757 93.925 20.3757C95.4653 20.3757 96.7078 19.8212 96.7078 17.5623V4.37817L97.8477 3.3411L97.7244 3.18708V3.17682ZM93.3705 10.1385C93.0932 10.4466 92.7646 10.693 92.2307 10.693C91.6453 10.693 91.3373 10.385 91.06 10.1385V4.91211L91.8199 4.3063L93.3602 5.6206V10.1488L93.3705 10.1385ZM93.3705 12.6131C93.1138 12.3564 92.7852 12.1305 92.2307 12.1305C91.6761 12.1305 91.2962 12.4077 91.06 12.6131V10.385C91.2859 10.58 91.6659 10.8881 92.2307 10.8881C92.7954 10.8881 93.124 10.6314 93.3705 10.385V12.6131ZM93.3705 17.8498C93.3705 18.7123 92.9392 19.6775 91.8302 19.6775C91.6556 19.6775 91.2449 19.6467 91.0703 19.6262V12.8698C91.327 12.6439 91.6556 12.3359 92.2409 12.3359C92.7749 12.3359 93.0727 12.5926 93.3808 12.8698V17.8601L93.3705 17.8498ZM102.386 20.6632L107.552 17.4493V10.4158L104.214 7.9617L99.0491 10.9189V17.8806L98.0325 18.6918L98.1352 18.8458L98.967 18.1578L102.386 20.6632ZM102.007 17.0181V9.52244L104.584 11.4426V18.9382L102.007 17.0181ZM117.42 8.13626C117.019 8.4135 116.66 8.56752 116.28 8.56752C115.88 8.56752 115.376 8.31082 115.109 7.98224C115.109 8.01304 113.189 10.0564 113.189 10.0564L111.269 7.98224L108.137 10.1591L108.24 10.3336L109.071 9.77914L110.211 11.0216V17.8293L108.846 18.8663L108.969 18.9895L109.657 18.5172L112.214 20.694L115.448 18.548L115.346 18.394L114.514 18.8971L113.199 17.706V10.2309C113.733 10.8162 114.339 11.3193 115.068 11.3193C116.383 11.3193 117.266 9.74834 117.42 8.12599M129.619 18.1989L128.654 18.8047L123.314 10.8367L123.591 10.4568C124.177 10.8059 124.7 11.2885 125.82 11.2885C126.939 11.2885 128.356 10.118 128.479 7.97197C128.202 8.35189 127.648 8.80368 126.734 8.80368C126.076 8.80368 125.419 8.37242 125.019 7.97197L121.373 13.3319L126.21 20.694L129.722 18.3632L129.619 18.1886V18.1989ZM123.14 18.394L122.328 18.9279L121.219 17.819V1.49286L117.225 4.25496C117.687 4.40898 118.241 4.65541 118.241 5.72328V17.8498L116.876 18.8869L116.999 19.0101L117.687 18.5377L120.069 20.7146L123.263 18.5891L123.16 18.4351L123.14 18.394ZM146.645 3.61834C146.645 1.5442 144.673 0.917856 143.02 0.989732V1.19509C144.006 1.26697 144.766 1.66742 144.766 2.33484C144.766 2.7969 144.437 3.37191 143.451 3.37191C142.671 3.37191 141.377 2.90985 140.165 2.5094C138.83 2.04734 137.557 1.61608 136.499 1.61608C134.425 1.61608 132.854 3.15628 132.854 5.05586C132.854 6.59606 134.045 7.13 134.528 7.32509L134.558 7.25321C134.25 7.04785 134.055 6.82196 134.055 6.1648C134.055 5.61033 134.456 4.87104 135.524 4.87104C136.489 4.87104 137.752 5.30229 139.426 5.77462C140.863 6.17507 142.414 6.55499 143.277 6.66794V10.0358L141.654 11.3707L143.277 12.7671V17.3775C142.445 17.8498 141.48 18.0038 140.648 18.0038C139.108 18.0038 137.68 17.5726 136.52 16.2788L140.894 14.1533V6.88356L135.555 9.26574C136.109 7.84876 137.146 6.79115 138.286 6.1032L138.255 6.02105C135.092 6.88356 132.207 9.78941 132.207 13.3832C132.207 17.6855 135.647 20.8788 139.621 20.8788C143.924 20.8788 146.45 17.5109 146.409 13.9479H146.337C145.71 15.3136 144.663 16.6074 143.482 17.285V12.7877L145.176 11.422L143.482 10.0564V6.68847C145.053 6.68847 146.676 5.6514 146.676 3.64914M137.66 15.519L136.417 16.1453C135.657 15.1596 135.154 13.7631 135.154 11.9662C135.154 11.2269 135.226 10.2207 135.483 9.51217L137.68 8.52644L137.649 15.5087L137.66 15.519ZM149.91 2.87904L147.682 4.74782L149.582 6.89383L151.81 5.02506L149.91 2.87904ZM153.299 18.4351L152.488 18.969L151.379 17.8601V10.4979L152.313 9.7586L152.19 9.60458L151.41 10.2104L149.561 8.01304L146.522 10.1385L146.624 10.3131L147.384 9.80994L148.401 11.0729V17.8601L147.035 18.8971L147.158 19.0203L147.846 18.548L150.229 20.7248L153.422 18.5994L153.32 18.4453L153.299 18.4351ZM170.376 18.3324L169.616 18.8355L168.425 17.6958V10.4774L169.39 9.73807L169.267 9.58405L168.404 10.2412L165.868 7.98224L163.013 10.2104L160.508 7.98224L157.694 10.1796L155.794 7.98224L152.755 10.1077L152.857 10.2823L153.617 9.77914L154.706 11.0216V17.8087L153.874 18.6404L156.297 20.694L158.649 18.5685L157.684 17.665V10.4363L158.31 9.97423L160.056 11.4939V17.819L159.245 18.6507L161.699 20.7043L163.999 18.5788L163.034 17.6752V10.4466L163.64 9.96396L165.406 11.5042V17.7266L164.697 18.4659L167.172 20.7248L170.438 18.4967L170.335 18.3427H170.355L170.376 18.3324ZM179.207 16.7922L176.784 18.7123L174.001 16.5149V15.1493L178.807 11.7609L176.383 7.99251L171.043 10.9292V18.0449L174.709 20.7043L179.341 16.9873L179.217 16.8127L179.207 16.7922ZM173.991 14.8618V9.57378L176.322 13.2189L173.991 14.8618ZM188.49 13.8658L186.436 12.2948C187.802 11.1037 188.285 9.59432 188.285 8.50591C188.285 8.35189 188.254 8.07465 188.233 7.81795H188.151C187.956 8.37242 187.412 8.85502 186.58 8.85502C185.748 8.85502 185.286 8.39296 184.783 7.83849L180.08 10.4466V14.2663L181.877 15.6832C180.08 17.2748 179.731 18.2605 179.731 19.1744C179.731 20.0882 180.265 20.8891 181.179 21.2485L181.251 21.1253C181.025 20.9302 180.819 20.7967 180.819 20.3141C180.819 19.965 181.179 19.4105 181.99 19.4105C183.027 19.4105 183.664 20.119 183.992 20.4989C183.992 20.4681 188.49 17.7368 188.49 17.7368V13.8658ZM187.432 10.7341C186.724 11.997 185.163 13.2395 184.239 13.9479L183.099 12.9828V9.26574C183.561 10.2823 184.495 11.1345 185.707 11.1345C186.416 11.1345 186.878 11.0113 187.422 10.7341M185.471 19.0819C184.937 17.8909 183.797 17.0283 182.534 17.0283C182.226 17.0283 181.292 16.9975 180.48 17.5007C180.963 16.6895 182.401 15.2314 184.228 14.1328L185.471 15.1698V19.0717V19.0819Z" fill="black"/>
</g>
</svg>
