<svg width="82" height="82" viewBox="0 0 82 82" fill="none" xmlns="http://www.w3.org/2000/svg">
<g id="spelling-bee-card-icon.svg">
<g id="Clip path group">
<mask id="mask0_1_174" style="mask-type:luminance" maskUnits="userSpaceOnUse" x="9" y="9" width="64" height="63">
<g id="a">
<path id="Vector" d="M72.6558 9.69531H9.55585V71.9953H72.6558V9.69531Z" fill="white"/>
</g>
</mask>
<g mask="url(#mask0_1_174)">
<g id="Group">
<path id="Vector_2" d="M42.3559 30.6953V21.6953C42.3559 16.6953 38.3559 12.6953 33.3559 12.6953C28.3559 12.6953 24.3559 16.6953 24.3559 21.6953C24.3559 26.6953 28.3559 30.6953 33.3559 30.6953H42.3559Z" fill="white"/>
<path id="Vector_3" d="M60.6559 28.0953C64.1559 24.5953 64.2559 18.8953 60.7559 15.3953C57.2559 11.8953 51.5559 11.8953 48.0559 15.3953C46.3559 17.0953 45.3559 19.3953 45.3559 21.7953V30.7953H54.3559C56.7559 30.7953 59.0559 29.7953 60.6559 28.0953Z" fill="white"/>
<path id="Vector_4" d="M18.1559 51.3953C18.1559 59.7953 23.3559 66.4953 30.8559 68.3953V34.7953C23.4559 37.3953 18.1559 43.9953 18.1559 51.3953Z" fill="#F8CD0E"/>
<path id="Vector_5" d="M52.1557 68.9953C57.5557 68.4953 62.4557 65.8953 65.8557 61.6953C62.1557 62.6953 58.1557 61.5953 55.4557 58.8953L57.5557 56.7953C60.6557 59.7953 65.5557 59.8953 68.6557 56.8953C69.3557 55.0953 69.6557 53.2953 69.6557 51.3953C69.8557 41.8953 62.4557 34.0953 52.9557 33.7953C52.7557 33.7953 52.4557 33.7953 52.2557 33.7953H45.4557V68.9953H52.1557ZM56.4557 44.3953C58.1557 44.3953 59.5557 45.7953 59.5557 47.5953C59.5557 49.2953 58.1557 50.6953 56.3557 50.6953C54.6557 50.6953 53.2557 49.2953 53.2557 47.4953C53.3557 45.7953 54.7557 44.3953 56.4557 44.3953Z" fill="#F8CD0E"/>
<path id="Vector_6" d="M35.5559 33.7953C34.9559 33.7953 34.3559 33.8953 33.8559 33.9953V68.8953C34.3559 68.8953 34.9559 68.9953 35.4559 68.9953H42.3559V33.7953H35.5559Z" fill="#F8CD0E"/>
<path id="Vector_7" d="M56.4558 50.6953C58.1558 50.6953 59.5558 49.2953 59.5558 47.4953C59.5558 45.6953 58.1558 44.3953 56.3558 44.3953C54.5558 44.3953 53.2558 45.7953 53.2558 47.4953C53.2558 49.1953 54.7558 50.6953 56.4558 50.6953Z" fill="black"/>
<path id="Vector_8" d="M60.0558 32.2953C61.0558 31.7953 61.9558 31.0953 62.8558 30.2953C67.5558 25.5953 67.5558 17.9953 62.8558 13.2953C58.1558 8.59532 50.5558 8.59532 45.8558 13.2953C45.0558 14.0953 44.3558 14.9953 43.8558 15.9953C40.6558 10.1953 33.4558 7.99532 27.5558 11.1953C21.6558 14.3953 19.5558 21.5953 22.7558 27.4953C23.9558 29.7953 25.9558 31.5953 28.3558 32.6953C21.0558 35.6953 15.8558 42.3953 15.1558 49.8953H9.55585V52.8953H15.1558C15.7558 63.6953 24.6558 72.0953 35.4558 71.9953H52.2558C63.4558 71.0953 72.5558 61.8953 72.5558 51.3953C72.7558 42.9953 67.7558 35.4953 60.0558 32.2953ZM30.8558 68.3953C23.3558 66.3953 18.1558 59.7953 18.1558 51.3953C18.1558 44.0953 23.5558 37.3953 30.8558 34.8953V68.3953ZM42.3558 68.9953H35.4558C34.9558 68.9953 34.3558 68.9953 33.8558 68.8953V33.9953C34.4558 33.8953 35.0558 33.7953 35.5558 33.7953H42.3558V68.9953ZM42.3558 30.7953H33.3558C30.9558 30.7953 28.6558 29.8953 26.9558 28.1953C23.4558 24.6953 23.3558 18.9953 26.8558 15.4953C30.3558 11.9953 36.0558 11.8953 39.5558 15.3953C41.2558 17.0953 42.2558 19.3953 42.2558 21.7953L42.3558 30.7953ZM45.3558 21.7953C45.3558 16.7953 49.3558 12.7953 54.3558 12.7953C59.3558 12.7953 63.3558 16.7953 63.3558 21.7953C63.3558 26.7953 59.3558 30.7953 54.3558 30.7953H45.3558V21.7953ZM57.4558 56.7953L55.3558 58.8953C58.0558 61.5953 62.0558 62.6953 65.7558 61.6953C62.3558 65.8953 57.4558 68.4953 52.0558 68.8953H45.2558V33.7953H52.0558C61.5558 33.5953 69.3558 41.0953 69.5558 50.5953C69.5558 50.8953 69.5558 51.0953 69.5558 51.3953C69.5558 53.2953 69.2558 55.1953 68.5558 56.8953C65.5558 59.8953 60.5558 59.8953 57.4558 56.7953Z" fill="black"/>
</g>
</g>
</g>
</g>
</svg>
