<svg width="81" height="82" viewBox="0 0 81 82" fill="none" xmlns="http://www.w3.org/2000/svg">
<g id="wordle-card-icon.svg">
<g id="Clip path group">
<mask id="mask0_1_206" style="mask-type:luminance" maskUnits="userSpaceOnUse" x="12" y="13" width="58" height="58">
<g id="a">
<path id="Vector" d="M69.495 13.49H12.495V70.49H69.495V13.49Z" fill="white"/>
</g>
</mask>
<g mask="url(#mask0_1_206)">
<g id="Group">
<path id="Vector_2" d="M51.3505 32.927H51.3405V32.937H51.3505V32.927Z" fill="#7FA768"/>
<path id="Vector_3" d="M51.3405 34.3711V68.0391H63.5575C65.391 68.0391 66.8825 66.5666 66.8825 64.7521V51.1386V34.4471L51.3405 34.3711Z" fill="#6AAA64"/>
<path id="Vector_4" d="M66.341 19.7315V31.5875L51.3595 31.521L51.426 16.5205H63.13C64.897 16.5205 66.341 17.9645 66.341 19.7315Z" fill="white"/>
<path id="Vector_5" d="M49.3455 51.5946V68.0201H33.072V51.5186L49.3455 51.5946Z" fill="#6AAA64"/>
<path id="Vector_6" d="M49.5735 33.3165L49.488 50.35L32.4735 50.255L32.5495 33.25L49.5735 33.3165Z" fill="#D1B036"/>
<path id="Vector_7" d="M48.576 16.5205L48.5095 31.502L33.509 31.445V16.5205H48.576Z" fill="white"/>
<path id="Vector_8" d="M31.875 51.4331V68.1056H18.746C16.789 68.1056 15.193 66.5096 15.193 64.5526V51.4331H31.875Z" fill="#6AAA64"/>
<path id="Vector_9" d="M30.6495 34.3711L30.5735 49.3526H15.5445V34.3711H30.6495Z" fill="white"/>
<path id="Vector_10" d="M30.659 16.5205V31.521H15.5445V19.7315C15.5445 17.9645 16.9885 16.5205 18.765 16.5205H30.659Z" fill="white"/>
<path id="Vector_11" d="M63.1775 13.7371H18.8125C15.4685 13.7371 12.742 16.4541 12.742 19.7981V64.1631C12.742 67.5071 15.4685 70.2336 18.8125 70.2336H63.1775C66.5215 70.2336 69.2385 67.5071 69.2385 64.1631V19.7981C69.2385 16.4636 66.5215 13.7371 63.1775 13.7371ZM51.388 33.0031H51.3975V33.0126H51.388V33.0031ZM15.6015 34.4471H30.7065L30.6305 49.4286H15.6015V34.4471ZM30.7065 67.3931H18.8125C17.036 67.3931 15.592 65.9491 15.592 64.1726V52.2691H30.7065V67.3931ZM30.7065 31.5971H15.6015V19.7981C15.6015 18.0311 17.0455 16.5871 18.822 16.5871H30.716V31.5971H30.7065ZM48.538 67.3931H33.5565V52.2026L48.538 52.2786V67.3931ZM48.462 49.4191L33.4805 49.3431L33.547 34.3616L48.538 34.4186L48.462 49.4191ZM48.557 31.5781L33.5565 31.5211V16.5871H48.6235L48.557 31.5781ZM66.3885 64.1726C66.3885 65.9491 64.9445 67.3931 63.1775 67.3931H51.388V52.2691H66.3885V64.1726ZM66.3885 49.4191H51.3215L51.388 34.4376L66.3885 34.5041V49.4191ZM66.3885 31.6636L51.407 31.5971L51.4735 16.5966H63.1775C64.9445 16.5966 66.3885 18.0406 66.3885 19.8076V31.6636Z" fill="black"/>
</g>
</g>
</g>
</g>
</svg>
